<svg width="43" height="43" viewBox="0 0 43 43" fill="none" xmlns="http://www.w3.org/2000/svg">
<path d="M42.7535 21.2227C42.7535 32.8194 33.3526 42.2203 21.7559 42.2203C10.1593 42.2203 0.758301 32.8194 0.758301 21.2227C0.758301 9.62605 10.1593 0.225098 21.7559 0.225098C33.3526 0.225098 42.7535 9.62605 42.7535 21.2227Z" fill="white"/>
<path d="M36.4795 21.2227C36.4795 29.2917 29.9382 35.833 21.8691 35.833C13.8001 35.833 7.25879 29.2917 7.25879 21.2227C7.25879 13.1536 13.8001 6.6123 21.8691 6.6123C29.9382 6.6123 36.4795 13.1536 36.4795 21.2227Z" fill="#BD1D27"/>
<path d="M24.5844 17.2848L20.5349 21.3343L19.1542 19.9535C18.5649 19.3642 17.6094 19.3642 17.0201 19.9535C16.4308 20.5428 16.4308 21.4983 17.0201 22.0876L20.5349 25.6024L26.7185 19.4189C27.3078 18.8296 27.3078 17.8741 26.7185 17.2848C26.1292 16.6954 25.1737 16.6954 24.5844 17.2848Z" fill="white"/>
</svg>
