<svg width="987" height="796" viewBox="0 0 987 796" fill="none" xmlns="http://www.w3.org/2000/svg">
<g filter="url(#filter0_ddi_73_549)">
<rect x="169.224" y="36.9258" width="726.281" height="502.418" transform="rotate(8.07515 169.224 36.9258)" fill="white"/>
</g>
<rect x="181.38" y="62.1896" width="687.113" height="456.255" transform="rotate(8.07515 181.38 62.1896)" fill="#DC482A"/>
<g style="mix-blend-mode:multiply" clip-path="url(#clip0_73_549)">
<path d="M173.084 586.255L173.19 585.779L173.305 585.267L173.406 585.378L173.554 585.243L173.639 584.921L173.862 585.165L173.985 585.107L174.083 584.963L174.225 584.955L174.5 584.811L174.586 584.787L174.833 584.331L174.798 584.025C174.798 584.025 174.979 583.778 174.952 583.749C174.925 583.719 174.884 583.675 174.884 583.675L175.082 583.521L175.189 583.342L175.315 583.227L175.512 583.087L175.749 583.183L176.142 583.094L176.474 583.102L176.663 583.16L176.827 583.132L177.144 582.991L177.545 582.747L177.63 582.588L177.731 582.55L178.129 582.348L178.441 582.008L178.448 581.867L178.795 581.55L178.873 581.221L179.03 581.037C179.03 581.037 179.229 580.855 179.266 580.821C179.303 580.787 179.58 580.602 179.58 580.602L179.728 580.629L180.14 580.428L180.201 580.346L180.293 580.343L180.425 580.385L180.486 580.451L180.614 580.443L180.715 580.553L180.855 580.425L181.048 580.398L181.252 580.415L181.51 580.341L181.558 580.393L181.719 580.273L181.85 580.18L182.018 580.067L182.024 579.94L182.081 579.765L182.167 579.592L182.133 579.393L182.271 579.321L182.311 579.216L182.344 579.105L182.365 578.964L182.592 578.797L182.769 578.635L182.703 578.519L182.76 578.359L182.71 578.066L182.664 577.972L182.891 577.806L182.814 577.632L183.12 577.285L183.255 577.27L183.356 577.069L183.359 577.013L183.437 576.995L183.581 576.945L183.825 576.722L184.086 576.741L184.452 576.474L184.72 576.175L184.989 575.847L185.176 575.622L185.324 575.338L185.422 575.031L185.539 574.952L185.564 575.038L185.728 574.996L185.913 574.827L186.069 574.82L186.426 574.588L186.528 574.536L187.007 573.786L187.126 573.338C187.126 573.338 187.341 572.98 187.396 572.848L187.573 572.686L187.785 572.547L188.062 572.198L188.463 571.629L188.752 571.175L188.928 571.055L189.14 570.888L189.579 570.419L189.764 570.25L190.01 569.971L190.146 569.779L190.247 569.741C190.247 569.741 190.338 569.59 190.398 569.521C190.45 569.46 190.693 569.089 190.693 569.089L190.772 568.922L191.165 568.508L191.287 568.316L191.455 568.054L191.679 567.781L191.846 567.534L191.792 567.475L191.956 567.298L192.111 567.156L192.35 566.884L192.567 566.618L192.689 566.574C192.689 566.574 192.946 566.366 193.02 566.298C193.094 566.231 193.213 566.095 193.213 566.095L193.475 565.936L193.601 565.822L193.617 565.78C193.682 565.733 193.748 565.701 193.748 565.701L193.898 565.658L194.472 565.337L194.648 565.203L195.187 564.86L195.625 564.554L195.715 564.444L196.078 564.248L196.262 564.08L196.729 563.775L197.174 563.491L197.38 563.302L197.491 563.201L197.631 563.072L197.912 562.816L198.107 562.719L198.209 562.652L198.231 562.632L198.333 562.566L198.722 562.265L198.768 562.182L198.856 562.129L199.176 561.931L199.191 561.918L199.32 561.881L199.503 561.904L199.803 561.832L199.927 561.76L199.755 561.646L200.004 561.622L200.445 561.408L200.766 561.196L201.073 560.983L201.299 560.845L201.441 560.674L201.499 560.486L201.678 560.444L202.099 560.357L202.276 560.195L203.019 560.058L203.125 559.893L203.459 559.859L203.818 559.747L204.138 559.726L204.488 559.813L204.816 559.743L205.228 559.57L205.456 559.361L205.755 559.48L206.09 559.595L206.661 559.641L206.893 559.673L207.204 559.687L207.308 559.593L207.541 559.759C207.541 559.759 207.574 559.647 207.625 559.628C207.675 559.609 207.718 559.271 207.718 559.271L207.63 559.027L207.976 558.887L207.931 558.644L207.834 558.271L207.854 557.982L207.751 557.602L207.481 557.307L207.523 557.16L207.565 557.014L207.606 556.732L207.424 556.533L207.503 556.338L207.732 556.455C207.732 556.455 207.9 556.328 207.924 556.265C207.948 556.203 207.921 556.01 207.921 556.01L208.197 556.016L208.156 555.823L208.083 555.565L208.162 555.235C208.162 555.235 207.976 554.795 208.006 554.768C208.042 554.735 208.204 554.6 208.204 554.6L208.315 554.499L208.476 554.379L208.674 554.225L208.792 554.117L208.635 553.841L208.959 553.87L209.293 553.672L209.599 553.651L209.889 553.643L210.456 553.328L210.161 552.784L210.478 552.996L210.748 552.966L210.937 552.847L211.098 552.43L211.028 552.236L211.101 552.196L211.443 551.992L211.915 552.36L212.346 552.521C212.346 552.521 212.71 552.771 212.001 552.024C211.656 551.648 211.21 551.189 210.682 550.642C210.155 550.094 209.553 549.465 208.864 548.741C208.174 548.016 200.94 540.132 200.057 539.165C199.834 538.921 199.24 538.272 198.458 537.416C197.675 536.559 196.703 535.497 195.725 534.426C194.747 533.356 193.762 532.278 192.952 531.393C192.143 530.507 191.508 529.813 191.232 529.51C190.672 528.898 190.098 528.27 189.505 527.621C188.918 526.979 188.317 526.322 187.703 525.65L184.006 521.605C183.379 520.919 182.738 520.218 182.083 519.502C161.957 497.484 143.546 477.341 122.151 453.949L118.906 450.399C118.366 449.809 117.826 449.218 117.273 448.613C116.72 448.008 116.167 447.388 115.608 446.747C115.036 446.106 114.463 445.45 113.871 444.772C113.278 444.094 112.666 443.395 112.04 442.666C111.415 441.937 110.79 441.194 110.15 440.464C109.518 439.728 108.892 439.014 108.285 438.335C107.678 437.657 107.099 437.008 106.552 436.41C105.453 435.207 104.508 434.173 103.683 433.315C102.865 432.45 102.161 431.739 101.572 431.14C100.976 430.547 100.482 430.05 100.055 429.627C99.6278 429.205 99.2615 428.849 98.9567 428.545C98.3328 427.936 97.8788 427.484 97.5807 427.188C97.2826 426.891 97.1268 426.736 97.1268 426.736L97.0308 426.823L96.8874 427.022L96.9019 427.171L96.5354 427.452L96.4616 427.52L96.3473 427.543L95.9391 427.808L95.7471 427.983L95.5761 428.166L95.5569 428.279L95.3216 428.318L94.7956 428.839L94.6381 429.037L94.4658 429.249L94.1612 429.568L94.0172 429.781L93.9097 429.812L93.7694 429.94L93.5897 430.158L93.4335 430.328L93.3215 430.458C93.3215 430.458 93.1504 430.641 93.1203 430.682C93.0901 430.723 92.8873 430.827 92.8873 430.827L92.6363 431.057L92.5053 431.136L92.4094 431.224L92.274 431.402C92.274 431.402 92.1713 431.482 92.119 431.543C92.0673 431.591 91.9104 431.775 91.9104 431.775L91.8777 431.872L91.7006 432.034L91.6803 432.012L91.4884 432.187L91.3777 432.289L91.2522 432.403L91.2117 432.359L91.0297 432.471L90.8526 432.633L90.6639 432.738L90.5397 432.824L90.2862 433.11L90.1847 433.162C90.1847 433.162 89.9646 433.336 89.9277 433.37C89.8907 433.404 89.8096 433.478 89.8096 433.478L89.7916 433.562L89.6809 433.663L89.5381 433.848L89.4403 433.978L89.1849 434.307L89.0857 434.465L89.0161 434.596L88.7726 434.819L88.4552 435.109L88.2546 435.319L88.1629 435.471L88.0133 435.648L87.7698 435.871L87.6122 436.069L87.4376 436.175L87.0439 436.589L86.8465 436.728L86.6305 436.966L86.5198 437.068L86.3391 437.152L86.143 437.263L85.9456 437.403L85.6535 437.602L85.3547 437.794L85.0177 438.048L84.8964 438.226L84.6198 438.398L84.509 438.499L84.3306 438.689L84.2764 438.793L83.9352 438.983L83.7343 439.045L83.5419 439.072L83.3869 439.213L82.953 439.42L82.7735 439.476L82.6438 439.527L82.3986 439.629L82.0205 439.853L81.6208 440.082L81.4051 440.158L81.1419 440.344L81.0135 440.367L80.6293 440.569L80.2136 440.84L80.0612 440.926L79.6934 441.235L79.6392 441.338C79.6392 441.338 79.3539 441.545 79.3028 441.578C79.2659 441.612 79.004 441.77 79.004 441.77L78.7716 441.901L78.4416 441.999L77.9829 442.283L77.8545 442.306L77.3756 442.567L76.9734 442.854L76.8923 442.928L76.6907 443.004L76.2455 443.302L75.9448 443.537L75.8267 443.645L75.7866 443.749L75.5995 443.974L75.303 444.272L75.2536 444.426L75.0261 444.607L74.865 444.727L74.6608 444.859L74.432 445.068C74.432 445.068 74.4185 445.054 74.405 445.039C74.3916 445.024 74.1117 445.266 74.1117 445.266L73.888 445.362L73.466 445.775L73.4198 445.858L73.2357 446.175L73.1869 446.315L73.0589 446.486L72.9887 446.632L73.0359 446.683L73.0764 446.727L72.8604 446.966L72.7446 447.18L72.7851 447.224L72.4639 447.599L72.1716 447.961L71.8517 448.308L71.8447 448.463L71.544 448.697L71.4765 448.623L71.3321 448.688L71.2983 448.651L71.2376 448.584L70.9955 448.616L70.8357 448.708L70.7459 448.817L70.38 449.084L70.3327 449.032L70.1113 449.235L70.0843 449.205L69.943 449.199L69.8127 449.264L69.779 449.227L69.581 449.381L69.3522 449.59L69.2514 449.628L69.1573 449.673L69.07 449.726L68.9445 449.84L68.837 449.871L68.6765 449.977L68.5308 450.07L68.4367 450.115L68.267 450.27L68.1402 450.413L67.9704 450.568L67.9907 450.59L67.8104 450.823L67.7186 450.974L67.6121 451.14L67.4423 451.295L67.4896 451.346L67.4206 451.464L67.4408 451.486L67.4082 451.583L67.3392 451.701L67.2211 451.809L67.1293 451.96L67.1496 451.982L67.1698 452.004L66.9397 452.242L66.8628 452.38L66.7027 452.635L66.7432 452.679L66.6392 452.788L66.4903 452.951L66.3488 453.107L66.2442 453.23L66.2914 453.282L66.1984 453.461L66.0586 453.738L65.8892 454.042L65.8337 454.174L65.6977 454.366L65.5161 454.627L65.3413 454.895L65.1667 455.001L64.9969 455.156L64.9543 455.317L65.0015 455.368L64.9355 455.578L64.8357 455.75L64.7199 455.964L64.5265 456.331L64.3346 456.506L64.0471 456.918L64.0269 456.896L63.8694 457.094L63.8078 457.205L63.719 457.448L63.6924 457.568L63.5083 457.885L63.3857 458.092L63.1717 458.287L63.0167 458.429L62.9359 458.652L62.8072 458.837L62.6782 458.874L62.3621 459.136L62.1493 459.303L62.0109 459.389L61.7956 459.613L61.493 459.89L61.2275 459.97L61.0442 460.11L60.8587 460.144L60.625 460.304L60.3929 460.272L60.1309 460.43C60.1309 460.43 60.3671 460.688 60.8191 461.183C61.2711 461.677 61.9323 462.401 62.8094 463.36C63.248 463.84 63.7472 464.386 64.3207 465.014C64.8942 465.641 65.5486 466.357 66.2908 467.169C67.0464 467.996 67.8965 468.926 68.8134 469.944C69.7371 470.969 70.6932 472.059 71.6979 473.173C72.4529 474.014 73.214 474.877 74.0034 475.74C74.786 476.596 75.5747 477.474 76.377 478.367C77.1866 479.252 78.0164 480.16 78.8598 481.083C103.371 507.884 130.744 537.801 153.806 563.016C154.413 563.68 160.815 570.685 161.389 571.312C161.962 571.94 162.516 572.545 163.035 573.113C163.292 573.394 163.933 574.095 164.742 574.981C165.51 575.85 166.369 576.908 167.143 577.948C167.853 578.992 168.511 579.963 168.989 580.664C169.467 581.365 169.806 581.854 169.919 582.008C170.332 582.593 170.671 583.082 170.965 583.478C171.245 583.858 171.484 584.195 171.698 584.473C172.113 585.016 172.448 585.441 172.704 585.736C172.945 586.03 173.094 586.192 173.094 586.192L173.084 586.255Z" fill="url(#paint0_linear_73_549)"/>
</g>
<mask id="mask0_73_549" style="mask-type:alpha" maskUnits="userSpaceOnUse" x="117" y="60" width="745" height="549">
<rect x="181.38" y="60.1896" width="687.113" height="456.255" transform="rotate(8.07515 181.38 60.1896)" fill="#DC482A"/>
</mask>
<g mask="url(#mask0_73_549)">
<g style="mix-blend-mode:overlay">
<path d="M268.999 186.849C264.686 210.525 260.925 230.512 257.463 250.551C255.989 259.041 255.818 266.283 264.832 272.667C282.01 284.827 297.842 298.907 317.872 315.117C298.257 318.461 282.653 322.375 266.84 323.437C251.639 324.467 239.811 325.849 235.891 344.467C232.707 359.535 225.224 373.691 219.681 388.282C218.168 392.265 216.518 396.112 211.857 399.404C202.782 380.288 192.963 362.352 185.745 343.435C180.574 329.882 171.969 326.698 159.499 328.649C140.375 331.624 121.167 329.832 102.009 330.595C99.1348 323.711 104.667 321.867 108.098 318.613C122.564 304.883 136.776 290.895 151.26 277.176C156.669 272.054 156.846 267.906 153.73 260.487C145.319 240.436 138.992 219.519 131.043 196.644C154.535 204.941 172.959 217.332 192.478 227.225C201.707 231.898 206.842 232.033 214.794 225.806C231.392 212.816 248.972 201.099 268.999 186.849Z" fill="white"/>
<path d="M779.966 156.596C775.652 180.272 771.891 200.259 768.429 220.299C766.956 228.788 766.785 236.03 775.798 242.414C792.976 254.574 808.808 268.654 828.838 284.864C809.223 288.208 793.619 292.123 777.807 293.185C762.606 294.214 750.777 295.596 746.857 314.214C743.673 329.283 736.19 343.438 730.648 358.03C729.134 362.012 727.484 365.859 722.824 369.151C713.749 350.035 703.929 332.1 696.712 313.182C691.541 299.63 682.935 296.445 670.465 298.396C651.341 301.371 632.133 299.579 612.975 300.342C610.101 293.458 615.634 291.615 619.064 288.36C633.531 274.631 647.742 260.642 662.227 246.923C667.635 241.801 667.812 237.653 664.696 230.234C656.285 210.183 649.958 189.266 642.01 166.391C665.501 174.688 683.925 187.079 703.444 196.972C712.674 201.646 717.809 201.78 725.76 195.553C742.358 182.564 759.939 170.846 779.966 156.596Z" fill="white"/>
<path d="M256.88 -8.88034C254.241 5.6064 251.94 17.8358 249.822 30.0975C248.92 35.2918 248.815 39.7233 254.33 43.6295C264.841 51.0696 274.528 59.6852 286.784 69.6037C274.782 71.6496 265.235 74.0447 255.559 74.6946C246.258 75.3244 239.021 76.17 236.622 87.562C234.674 96.7821 230.095 105.444 226.704 114.372C225.778 116.808 224.768 119.162 221.917 121.176C216.364 109.48 210.356 98.5057 205.939 86.9304C202.775 78.6381 197.51 76.6897 189.88 77.8832C178.178 79.7039 166.425 78.6072 154.703 79.0742C152.945 74.8618 156.33 73.7339 158.429 71.7427C167.281 63.3419 175.976 54.7826 184.839 46.3886C188.148 43.2544 188.257 40.7162 186.35 36.177C181.203 23.9079 177.332 11.1095 172.468 -2.88706C186.842 2.18981 198.116 9.77157 210.059 15.8245C215.706 18.6842 218.848 18.7667 223.713 14.9564C233.869 7.00848 244.626 -0.161147 256.88 -8.88034Z" fill="white"/>
<path d="M722.845 -43.886C720.205 -29.3993 717.904 -17.1699 715.786 -4.90817C714.884 0.286093 714.78 4.71763 720.295 8.62379C730.806 16.0639 740.493 24.6795 752.748 34.598C740.747 36.6438 731.199 39.039 721.524 39.6889C712.223 40.3187 704.985 41.1643 702.587 52.5563C700.638 61.7763 696.059 70.4378 692.668 79.3658C691.742 81.8027 690.732 84.1568 687.881 86.1707C682.328 74.4741 676.32 63.5 671.904 51.9247C668.74 43.6324 663.474 41.684 655.844 42.8775C644.143 44.6982 632.39 43.6015 620.668 44.0685C618.909 39.8561 622.294 38.7282 624.393 36.737C633.245 28.3362 641.941 19.7769 650.803 11.3829C654.112 8.24874 654.221 5.71052 652.314 1.17132C647.168 -11.0978 643.296 -23.8962 638.433 -37.8928C652.807 -32.8159 664.08 -25.2341 676.023 -19.1812C681.67 -16.3215 684.812 -16.2391 689.678 -20.0493C699.833 -27.9972 710.591 -35.1669 722.845 -43.886Z" fill="white"/>
<path d="M399.909 124.108C397.269 138.595 394.968 150.825 392.85 163.086C391.948 168.281 391.844 172.712 397.358 176.618C407.87 184.058 417.557 192.674 429.812 202.593C417.811 204.638 408.263 207.034 398.588 207.683C389.287 208.313 382.049 209.159 379.651 220.551C377.702 229.771 373.123 238.432 369.732 247.36C368.806 249.797 367.796 252.151 364.945 254.165C359.392 242.469 353.384 231.494 348.968 219.919C345.804 211.627 340.538 209.678 332.908 210.872C321.207 212.693 309.454 211.596 297.732 212.063C295.973 207.851 299.358 206.723 301.457 204.731C310.309 196.331 319.005 187.771 327.867 179.377C331.176 176.243 331.285 173.705 329.378 169.166C324.232 156.897 320.36 144.098 315.497 130.102C329.871 135.179 341.144 142.76 353.087 148.813C358.734 151.673 361.876 151.755 366.742 147.945C376.897 139.997 387.655 132.828 399.909 124.108Z" fill="white"/>
<path d="M823.144 53.1617C821.714 61.0064 820.468 67.6288 819.321 74.2686C818.833 77.0814 818.776 79.4811 821.763 81.5963C827.454 85.6253 832.7 90.2907 839.337 95.6617C832.838 96.7695 827.667 98.0665 822.428 98.4184C817.392 98.7594 813.472 99.2174 812.174 105.386C811.119 110.379 808.639 115.069 806.803 119.904C806.301 121.223 805.754 122.498 804.21 123.589C801.203 117.255 797.95 111.312 795.558 105.044C793.845 100.554 790.994 99.4988 786.862 100.145C780.526 101.131 774.161 100.537 767.814 100.79C766.861 98.509 768.694 97.8982 769.831 96.8199C774.624 92.2708 779.333 87.6359 784.132 83.0904C785.924 81.3932 785.983 80.0188 784.951 77.5608C782.164 70.9169 780.067 63.9864 777.434 56.4071C785.217 59.1563 791.322 63.2619 797.789 66.5396C800.847 68.0882 802.549 68.1329 805.183 66.0695C810.683 61.7657 816.508 57.8833 823.144 53.1617Z" fill="white"/>
<g style="mix-blend-mode:multiply">
<path d="M252.57 44.9966C250.095 58.5811 247.937 70.0489 245.951 81.5469C245.105 86.4177 245.007 90.5732 250.179 94.2361C260.035 101.213 269.119 109.292 280.611 118.593C269.357 120.511 260.404 122.757 251.331 123.366C242.609 123.957 235.823 124.75 233.573 135.432C231.747 144.078 227.453 152.2 224.273 160.572C223.404 162.857 222.458 165.065 219.784 166.953C214.577 155.985 208.943 145.695 204.802 134.84C201.835 127.064 196.897 125.237 189.742 126.356C178.769 128.064 167.748 127.035 156.757 127.473C155.107 123.523 158.282 122.466 160.25 120.598C168.55 112.721 176.705 104.695 185.015 96.8233C188.118 93.8844 188.22 91.5043 186.432 87.2478C181.606 75.7428 177.976 63.7415 173.415 50.6166C186.894 55.3773 197.465 62.4869 208.664 68.1628C213.96 70.8444 216.906 70.9217 221.469 67.3488C230.992 59.8959 241.079 53.1728 252.57 44.9966Z" fill="#3D5989"/>
</g>
<g style="mix-blend-mode:multiply">
<path d="M464.095 -35.8038C461.62 -22.2193 459.462 -10.7516 457.476 0.746499C456.63 5.61725 456.532 9.77279 461.703 13.4357C471.56 20.4124 480.644 28.4914 492.136 37.7922C480.882 39.7106 471.929 41.9566 462.856 42.566C454.134 43.1566 447.347 43.9495 445.098 54.632C443.271 63.2778 438.978 71.3998 435.798 79.7718C434.929 82.0569 433.983 84.2644 431.309 86.1529C426.102 75.1848 420.468 64.8941 416.326 54.0398C413.359 46.2639 408.422 44.4368 401.267 45.556C390.294 47.2633 379.273 46.2349 368.281 46.6728C366.632 42.7228 369.807 41.6651 371.775 39.7979C380.075 31.9203 388.23 23.8941 396.54 16.0229C399.643 13.084 399.745 10.7038 397.957 6.44735C393.131 -5.05765 389.501 -17.0589 384.94 -30.1838C398.419 -25.4231 408.99 -18.3135 420.189 -12.6376C425.485 -9.95604 428.431 -9.87868 432.994 -13.4517C442.517 -20.9045 452.604 -27.6276 464.095 -35.8038Z" fill="#3D5989"/>
</g>
<g style="mix-blend-mode:multiply">
<path d="M651.067 4.9774C648.592 18.5619 646.434 30.0296 644.448 41.5277C643.602 46.3984 643.504 50.554 648.676 54.2169C658.532 61.1936 667.616 69.2726 679.108 78.5734C667.854 80.4918 658.901 82.7378 649.828 83.3472C641.106 83.9377 634.32 84.7307 632.071 95.4132C630.244 104.059 625.95 112.181 622.77 120.553C621.901 122.838 620.955 125.046 618.281 126.934C613.074 115.966 607.44 105.675 603.299 94.821C600.332 87.0451 595.394 85.218 588.239 86.3372C577.267 88.0445 566.246 87.0161 555.254 87.454C553.604 83.504 556.779 82.4463 558.747 80.5791C567.048 72.7015 575.202 64.6753 583.512 56.8041C586.615 53.8652 586.717 51.485 584.929 47.2285C580.103 35.7235 576.473 23.7223 571.912 10.5974C585.391 15.3581 595.962 22.4676 607.161 28.1436C612.457 30.8251 615.403 30.9025 619.966 27.3295C629.489 19.8766 639.576 13.1536 651.067 4.9774Z" fill="#3D5989"/>
</g>
<g style="mix-blend-mode:multiply">
<path d="M755.118 132.079C752.643 145.664 750.485 157.131 748.499 168.629C747.653 173.5 747.555 177.656 752.726 181.319C762.583 188.295 771.667 196.374 783.159 205.675C771.905 207.594 762.952 209.84 753.879 210.449C745.157 211.039 738.37 211.832 736.121 222.515C734.294 231.161 730.001 239.283 726.821 247.655C725.952 249.94 725.006 252.147 722.332 254.036C717.125 243.068 711.491 232.777 707.349 221.923C704.382 214.147 699.445 212.32 692.29 213.439C681.317 215.146 670.296 214.118 659.304 214.556C657.655 210.606 660.83 209.548 662.798 207.681C671.098 199.803 679.253 191.777 687.563 183.906C690.666 180.967 690.768 178.587 688.98 174.33C684.154 162.825 680.524 150.824 675.963 137.699C689.442 142.46 700.013 149.569 711.212 155.245C716.508 157.927 719.454 158.004 724.016 154.431C733.54 146.978 743.627 140.255 755.118 132.079Z" fill="#3D5989"/>
</g>
<g style="mix-blend-mode:multiply">
<path d="M324.377 208.046C321.901 221.631 319.744 233.099 317.757 244.597C316.912 249.468 316.814 253.623 321.985 257.286C331.842 264.263 340.925 272.342 352.418 281.642C341.164 283.561 332.211 285.807 323.138 286.416C314.416 287.007 307.629 287.8 305.38 298.482C303.553 307.128 299.259 315.25 296.079 323.622C295.211 325.907 294.264 328.115 291.59 330.003C286.383 319.035 280.749 308.744 276.608 297.89C273.641 290.114 268.704 288.287 261.549 289.406C250.576 291.114 239.555 290.085 228.563 290.523C226.914 286.573 230.088 285.515 232.057 283.648C240.357 275.771 248.511 267.744 256.822 259.873C259.925 256.934 260.027 254.554 258.239 250.298C253.413 238.793 249.783 226.791 245.222 213.667C258.701 218.427 269.272 225.537 280.471 231.213C285.767 233.894 288.713 233.972 293.275 230.399C302.798 222.946 312.886 216.223 324.377 208.046Z" fill="#3D5989"/>
</g>
</g>
</g>
<g style="mix-blend-mode:multiply">
<path d="M885.815 243.266L885.921 242.79L886.036 242.278L886.137 242.389L886.285 242.254L886.37 241.932L886.593 242.176L886.716 242.118L886.814 241.973L886.956 241.966L887.231 241.822L887.317 241.798L887.564 241.342L887.529 241.036C887.529 241.036 887.71 240.789 887.683 240.759C887.656 240.73 887.615 240.686 887.615 240.686L887.813 240.532L887.92 240.353L888.046 240.238L888.243 240.098L888.479 240.194L888.873 240.105L889.205 240.113L889.394 240.171L889.558 240.143L889.875 240.001L890.276 239.758L890.361 239.599L890.461 239.561L890.86 239.359L891.172 239.019L891.179 238.878L891.526 238.561L891.604 238.232L891.761 238.048C891.761 238.048 891.96 237.865 891.997 237.832C892.034 237.798 892.311 237.612 892.311 237.612L892.459 237.64L892.871 237.439L892.932 237.357L893.024 237.354L893.156 237.395L893.217 237.462L893.345 237.453L893.446 237.564L893.586 237.436L893.779 237.409L893.983 237.425L894.241 237.352L894.289 237.404L894.45 237.284L894.581 237.19L894.749 237.078L894.755 236.95L894.812 236.776L894.898 236.603L894.864 236.403L895.002 236.332L895.042 236.227L895.075 236.115L895.096 235.975L895.323 235.808L895.5 235.646L895.434 235.53L895.491 235.37L895.441 235.077L895.395 234.983L895.622 234.816L895.545 234.643L895.851 234.296L895.986 234.281L896.087 234.08L896.09 234.023L896.168 234.006L896.312 233.955L896.556 233.733L896.817 233.752L897.182 233.485L897.451 233.186L897.72 232.858L897.907 232.633L898.055 232.349L898.153 232.042L898.27 231.962L898.295 232.048L898.459 232.006L898.644 231.838L898.8 231.83L899.157 231.599L899.258 231.547L899.738 230.797L899.857 230.349C899.857 230.349 900.072 229.991 900.127 229.859L900.304 229.697L900.516 229.558L900.793 229.209L901.194 228.64L901.483 228.185L901.659 228.066L901.871 227.898L902.31 227.43L902.495 227.261L902.741 226.982L902.877 226.79L902.977 226.752C902.977 226.752 903.069 226.6 903.129 226.532C903.181 226.471 903.424 226.1 903.424 226.1L903.503 225.933L903.896 225.519L904.018 225.326L904.186 225.065L904.41 224.792L904.577 224.545L904.523 224.485L904.687 224.309L904.842 224.167L905.081 223.895L905.298 223.628L905.42 223.584C905.42 223.584 905.677 223.376 905.751 223.309C905.825 223.242 905.944 223.105 905.944 223.105L906.206 222.947L906.332 222.833L906.348 222.791C906.413 222.744 906.479 222.712 906.479 222.712L906.629 222.669L907.203 222.348L907.379 222.214L907.918 221.87L908.356 221.564L908.446 221.455L908.809 221.259L908.993 221.09L909.46 220.786L909.905 220.501L910.111 220.313L910.222 220.211L910.362 220.083L910.643 219.827L910.838 219.729L910.94 219.663L910.962 219.643L911.064 219.577L911.453 219.276L911.499 219.193L911.587 219.14L911.907 218.942L911.922 218.929L912.051 218.892L912.234 218.914L912.534 218.843L912.658 218.771L912.486 218.657L912.735 218.632L913.176 218.419L913.497 218.207L913.804 217.994L914.03 217.855L914.172 217.685L914.23 217.496L914.409 217.455L914.83 217.368L915.007 217.206L915.75 217.069L915.856 216.904L916.19 216.869L916.549 216.758L916.869 216.737L917.219 216.824L917.547 216.753L917.959 216.581L918.187 216.372L918.486 216.491L918.821 216.605L919.392 216.652L919.624 216.684L919.935 216.698L920.039 216.603L920.272 216.77C920.272 216.77 920.305 216.658 920.356 216.639C920.406 216.62 920.449 216.282 920.449 216.282L920.361 216.037L920.707 215.897L920.662 215.655L920.565 215.282L920.585 214.993L920.482 214.613L920.212 214.318L920.254 214.171L920.296 214.024L920.337 213.743L920.155 213.544L920.234 213.349L920.463 213.466C920.463 213.466 920.631 213.339 920.655 213.276C920.679 213.213 920.652 213.021 920.652 213.021L920.928 213.026L920.887 212.833L920.814 212.575L920.892 212.246C920.892 212.246 920.707 211.806 920.736 211.779C920.773 211.745 920.935 211.611 920.935 211.611L921.046 211.51L921.207 211.39L921.405 211.236L921.523 211.128L921.366 210.852L921.69 210.88L922.024 210.683L922.33 210.661L922.62 210.653L923.187 210.339L922.892 209.795L923.208 210.007L923.479 209.977L923.668 209.858L923.828 209.44L923.759 209.246L923.832 209.207L924.174 209.003L924.646 209.371L925.077 209.532C925.077 209.532 925.441 209.782 924.731 209.035C924.387 208.659 923.941 208.2 923.413 207.652C922.886 207.105 922.284 206.476 921.595 205.752C920.905 205.027 913.671 197.143 912.788 196.176C912.565 195.932 911.971 195.283 911.189 194.426C910.406 193.57 909.434 192.507 908.456 191.437C907.478 190.367 906.493 189.289 905.683 188.403C904.874 187.518 904.239 186.824 903.963 186.521C903.403 185.909 902.829 185.281 902.236 184.632C901.649 183.989 901.048 183.333 900.434 182.661L896.737 178.616C896.109 177.93 895.469 177.228 894.814 176.512C874.688 154.495 856.276 134.351 834.882 110.96L831.637 107.41C831.097 106.819 830.557 106.229 830.004 105.624C829.451 105.018 828.898 104.399 828.339 103.758C827.766 103.116 827.194 102.461 826.602 101.783C826.009 101.105 825.397 100.405 824.771 99.6765C824.146 98.9476 823.521 98.2047 822.881 97.4752C822.249 96.739 821.623 96.0243 821.016 95.3459C820.409 94.6674 819.83 94.0185 819.283 93.4207C818.184 92.2176 817.239 91.1842 816.414 90.3261C815.596 89.4612 814.892 88.7501 814.303 88.1503C813.707 87.5573 813.213 87.0609 812.786 86.6382C812.359 86.2156 811.992 85.8594 811.688 85.5555C811.064 84.9471 810.61 84.4949 810.312 84.1984C810.014 83.9019 809.858 83.7463 809.858 83.7463L809.762 83.834L809.618 84.0328L809.633 84.1821L809.266 84.4629L809.193 84.5304L809.078 84.5536L808.67 84.8184L808.478 84.9938L808.307 85.1772L808.288 85.2896L808.053 85.3286L807.527 85.85L807.369 86.0482L807.197 86.2599L806.892 86.5789L806.748 86.7918L806.641 86.8224L806.5 86.9506L806.321 87.169L806.164 87.339L806.052 87.4684C806.052 87.4684 805.881 87.6519 805.851 87.693C805.821 87.7341 805.618 87.8382 805.618 87.8382L805.367 88.0676L805.236 88.1467L805.14 88.2344L805.005 88.4123C805.005 88.4123 804.902 88.4927 804.85 88.554C804.798 88.6012 804.641 88.7853 804.641 88.7853L804.609 88.8829L804.432 89.0449L804.411 89.0227L804.219 89.1981L804.109 89.2993L803.983 89.414L803.943 89.3697L803.761 89.4819L803.584 89.6438L803.395 89.7486L803.271 89.835L803.017 90.1209L802.916 90.173C802.916 90.173 802.696 90.3472 802.659 90.3809C802.622 90.4146 802.541 90.4888 802.541 90.4888L802.523 90.573L802.412 90.6742L802.269 90.8589L802.171 90.989L801.916 91.3173L801.817 91.4756L801.747 91.607L801.504 91.8296L801.186 92.1197L800.986 92.3301L800.894 92.4817L800.744 92.6591L800.501 92.8817L800.343 93.0799L800.169 93.1853L799.775 93.5994L799.577 93.7392L799.361 93.9772L799.251 94.0784L799.07 94.1623L798.874 94.2739L798.677 94.4136L798.384 94.6129L798.086 94.8047L797.749 95.0586L797.627 95.2371L797.351 95.4088L797.24 95.51L797.062 95.7001L797.007 95.8039L796.666 95.9938L796.465 96.0556L796.273 96.0823L796.118 96.224L795.684 96.431L795.504 96.4867L795.375 96.5375L795.13 96.6397L794.751 96.8634L794.352 97.0932L794.136 97.1685L793.873 97.3548L793.744 97.3774L793.36 97.5795L792.945 97.8511L792.792 97.9363L792.424 98.2453L792.37 98.3491C792.37 98.3491 792.085 98.5557 792.034 98.5888C791.997 98.6225 791.735 98.7806 791.735 98.7806L791.503 98.9118L791.173 99.0102L790.714 99.294L790.585 99.3165L790.107 99.5781L789.704 99.8645L789.623 99.9387L789.422 100.015L788.976 100.313L788.676 100.547L788.558 100.655L788.518 100.76L788.33 100.985L788.034 101.283L787.985 101.436L787.757 101.617L787.596 101.738L787.392 101.87L787.163 102.079C787.163 102.079 787.149 102.064 787.136 102.05C787.123 102.035 786.843 102.277 786.843 102.277L786.619 102.373L786.197 102.786L786.151 102.869L785.967 103.186L785.918 103.326L785.79 103.497L785.72 103.642L785.767 103.694L785.807 103.738L785.591 103.976L785.476 104.19L785.516 104.235L785.195 104.61L784.903 104.972L784.583 105.318L784.576 105.474L784.275 105.708L784.207 105.634L784.063 105.698L784.029 105.661L783.969 105.595L783.727 105.627L783.567 105.719L783.477 105.828L783.111 106.095L783.064 106.043L782.842 106.245L782.815 106.216L782.674 106.209L782.544 106.274L782.51 106.237L782.312 106.391L782.083 106.6L781.982 106.638L781.888 106.684L781.801 106.736L781.675 106.851L781.568 106.882L781.407 106.988L781.262 107.08L781.168 107.126L780.998 107.281L780.871 107.424L780.701 107.579L780.722 107.601L780.541 107.834L780.45 107.985L780.343 108.15L780.173 108.305L780.221 108.357L780.152 108.474L780.172 108.497L780.139 108.594L780.07 108.711L779.952 108.819L779.86 108.971L779.881 108.993L779.901 109.015L779.671 109.253L779.594 109.391L779.434 109.645L779.474 109.69L779.37 109.798L779.221 109.962L779.08 110.118L778.975 110.241L779.022 110.292L778.929 110.472L778.79 110.749L778.62 111.053L778.565 111.185L778.429 111.377L778.247 111.638L778.072 111.906L777.898 112.011L777.728 112.167L777.685 112.327L777.732 112.379L777.666 112.588L777.567 112.761L777.451 112.975L777.257 113.342L777.066 113.517L776.778 113.929L776.758 113.907L776.6 114.105L776.539 114.215L776.45 114.459L776.423 114.578L776.239 114.896L776.117 115.102L775.903 115.298L775.748 115.44L775.667 115.663L775.538 115.848L775.409 115.885L775.093 116.147L774.88 116.314L774.742 116.4L774.527 116.624L774.224 116.9L773.958 116.98L773.775 117.121L773.59 117.155L773.356 117.314L773.124 117.283L772.862 117.441C772.862 117.441 773.098 117.699 773.55 118.194C774.002 118.688 774.663 119.412 775.54 120.371C775.979 120.851 776.478 121.397 777.052 122.024C777.625 122.652 778.28 123.368 779.022 124.18C779.777 125.006 780.627 125.936 781.544 126.954C782.468 127.98 783.424 129.07 784.429 130.184C785.184 131.025 785.945 131.887 786.734 132.751C787.517 133.607 788.306 134.485 789.108 135.377C789.918 136.263 790.747 137.171 791.591 138.094C816.102 164.895 843.475 194.812 866.537 220.026C867.144 220.691 873.546 227.695 874.12 228.323C874.693 228.95 875.247 229.555 875.766 230.124C876.023 230.404 876.663 231.106 877.473 231.991C878.241 232.861 879.099 233.919 879.874 234.959C880.584 236.003 881.241 236.974 881.72 237.675C882.198 238.376 882.537 238.865 882.65 239.019C883.063 239.604 883.402 240.093 883.696 240.488C883.976 240.869 884.215 241.205 884.429 241.484C884.844 242.026 885.179 242.452 885.434 242.747C885.676 243.041 885.824 243.203 885.824 243.203L885.815 243.266Z" fill="url(#paint1_linear_73_549)"/>
</g>
<defs>
<filter id="filter0_ddi_73_549" x="0.893293" y="0.267603" width="985.166" height="794.969" filterUnits="userSpaceOnUse" color-interpolation-filters="sRGB">
<feFlood flood-opacity="0" result="BackgroundImageFix"/>
<feColorMatrix in="SourceAlpha" type="matrix" values="0 0 0 0 0 0 0 0 0 0 0 0 0 0 0 0 0 0 127 0" result="hardAlpha"/>
<feMorphology radius="36.6582" operator="erode" in="SourceAlpha" result="effect1_dropShadow_73_549"/>
<feOffset dy="36.6582"/>
<feGaussianBlur stdDeviation="36.6582"/>
<feComposite in2="hardAlpha" operator="out"/>
<feColorMatrix type="matrix" values="0 0 0 0 0 0 0 0 0 0 0 0 0 0 0 0 0 0 0.3 0"/>
<feBlend mode="normal" in2="BackgroundImageFix" result="effect1_dropShadow_73_549"/>
<feColorMatrix in="SourceAlpha" type="matrix" values="0 0 0 0 0 0 0 0 0 0 0 0 0 0 0 0 0 0 127 0" result="hardAlpha"/>
<feMorphology radius="24.4388" operator="erode" in="SourceAlpha" result="effect2_dropShadow_73_549"/>
<feOffset dy="61.097"/>
<feGaussianBlur stdDeviation="61.097"/>
<feComposite in2="hardAlpha" operator="out"/>
<feColorMatrix type="matrix" values="0 0 0 0 0.196078 0 0 0 0 0.196078 0 0 0 0 0.364706 0 0 0 0.25 0"/>
<feBlend mode="normal" in2="effect1_dropShadow_73_549" result="effect2_dropShadow_73_549"/>
<feBlend mode="normal" in="SourceGraphic" in2="effect2_dropShadow_73_549" result="shape"/>
<feColorMatrix in="SourceAlpha" type="matrix" values="0 0 0 0 0 0 0 0 0 0 0 0 0 0 0 0 0 0 127 0" result="hardAlpha"/>
<feOffset dy="1.22194"/>
<feGaussianBlur stdDeviation="0.61097"/>
<feComposite in2="hardAlpha" operator="arithmetic" k2="-1" k3="1"/>
<feColorMatrix type="matrix" values="0 0 0 0 1 0 0 0 0 1 0 0 0 0 1 0 0 0 0.1 0"/>
<feBlend mode="normal" in2="shape" result="effect3_innerShadow_73_549"/>
</filter>
<linearGradient id="paint0_linear_73_549" x1="117.809" y1="523.383" x2="153.644" y2="490.627" gradientUnits="userSpaceOnUse">
<stop stop-color="#E2D4B5"/>
<stop offset="0.51" stop-color="#E5D7B7"/>
<stop offset="1" stop-color="#E2D4B5"/>
</linearGradient>
<linearGradient id="paint1_linear_73_549" x1="830.54" y1="180.393" x2="866.375" y2="147.638" gradientUnits="userSpaceOnUse">
<stop stop-color="#E2D4B5"/>
<stop offset="0.51" stop-color="#E5D7B7"/>
<stop offset="1" stop-color="#E2D4B5"/>
</linearGradient>
<clipPath id="clip0_73_549">
<rect width="174.81" height="52.04" fill="white" transform="translate(96.0576 424.854) rotate(47.5708)"/>
</clipPath>
</defs>
</svg>
