<svg width="32" height="34" viewBox="0 0 32 34" fill="none" xmlns="http://www.w3.org/2000/svg">
<path d="M31.1804 3.07752C30.1518 3.94979 28.9853 4.67792 27.6966 5.23115C28.8322 4.00074 29.4813 2.39919 29.5229 0.725333C28.4543 1.87566 27.1964 2.83422 25.8038 3.55934C24.4976 2.79066 22.9741 2.47473 21.4699 2.6606C19.9657 2.84648 18.565 3.52376 17.4851 4.5873C16.4053 5.65084 15.7068 7.04114 15.4981 8.54233C15.2894 10.0435 15.5821 11.5716 16.3309 12.8894C13.6682 13.5299 10.9005 13.6034 8.20753 13.1051C5.51456 12.6068 2.95647 11.5477 0.699263 9.9968C0.420309 11.141 0.428037 12.3702 0.783259 13.5771C1.10241 14.6638 1.68485 15.6549 2.47892 16.4625C3.27298 17.2701 4.25412 17.8693 5.33526 18.2067C4.27757 18.4818 3.16947 18.5003 2.1032 18.2606L2.12822 18.3456C2.57662 19.8695 3.53844 21.1913 4.85049 22.0868C6.16254 22.9823 7.74399 23.3963 9.32651 23.2585C8.43186 23.8077 7.42411 24.1464 6.37938 24.249C7.18672 25.4362 8.34509 26.3412 9.69233 26.8373C11.0396 27.3334 12.5082 27.3958 13.8927 27.0158C12.0952 29.5388 9.50123 31.3839 6.52811 32.2542C6.00172 32.4093 5.46669 32.5333 4.92577 32.6257C8.51319 33.6775 12.3277 33.6733 15.9128 32.6138C28.0529 29.0407 31.7303 17.0325 29.1637 8.31203C29.0803 8.02872 28.989 7.74465 28.8928 7.46509C29.909 6.15158 30.6831 4.66757 31.1788 3.0826L31.1804 3.07752Z" fill="#BA1F2A"/>
</svg>
