<svg width="300" height="55" viewBox="0 0 300 55" fill="none" xmlns="http://www.w3.org/2000/svg">
<path d="M32.6221 3.43701C27.2764 18.0815 22.4922 33.7817 18.2695 50.5376L0.345703 53.772C1.46875 47.3931 2.16504 39.6216 2.43457 30.4575C2.56934 22.6411 2.7041 14.8247 2.83887 7.0083L16.3154 3.97607L10.5205 46.9663H10.5879L20.4258 5.66064L32.6221 3.43701Z" fill="#FCC100"/>
<path d="M32.8916 5.59326L44.4814 3.43701C39.8096 21.4507 36.7549 37.061 35.3174 50.2681L24.6035 53.2329L32.8916 5.59326Z" fill="#FCC100"/>
<path d="M74.4668 3.43701C69.1211 18.0815 64.3369 33.7817 60.1143 50.5376L42.1904 53.772C43.3135 47.3931 44.0098 39.6216 44.2793 30.4575C44.4141 22.6411 44.5488 14.8247 44.6836 7.0083L58.1602 3.97607L52.3652 46.9663H52.4326L62.2705 5.66064L74.4668 3.43701Z" fill="#FCC100"/>
<path d="M59.8447 54.0415C66.4482 37.1958 71.7939 20.9565 75.8818 5.32373L96.3662 1.88721C94.0303 15.4985 92.9746 31.603 93.1992 50.2007L78.9141 53.5024L79.9248 45.0796L75.4102 45.9556L73.9951 51.8853L59.8447 54.0415ZM81.0029 36.0503L84.1025 10.5796H84.0352L77.7012 36.6567L81.0029 36.0503Z" fill="#FCC100"/>
<path d="M114.29 5.59326L125.88 3.43701C122.646 15.8804 120.152 27.3579 118.4 37.8696L130.26 36.0503L129.249 48.5835C123.14 49.1226 115.391 50.6724 106.002 53.2329L114.29 5.59326Z" fill="#FCC100"/>
<path d="M123.185 54.0415C129.788 37.1958 135.134 20.9565 139.222 5.32373L159.706 1.88721C157.37 15.4985 156.314 31.603 156.539 50.2007L142.254 53.5024L143.265 45.0796L138.75 45.9556L137.335 51.8853L123.185 54.0415ZM144.343 36.0503L147.442 10.5796H147.375L141.041 36.6567L144.343 36.0503Z" fill="#FCC100"/>
<path d="M177.226 5.52588C184.188 3.41455 189.894 2.35889 194.341 2.35889C200.405 2.35889 203.393 4.47021 203.303 8.69287C203.168 17.1831 196.025 25.9653 181.875 35.0396C180.887 40.52 180.168 45.5962 179.719 50.2681L169.005 53.2329C169.14 52.2446 169.679 49.2349 170.622 44.2036L173.587 28.2339C176.237 13.5444 177.45 5.9751 177.226 5.52588ZM185.716 16.3071C185.401 17.5649 185.109 18.8228 184.84 20.0806L184.099 23.7866C188.276 21.7202 190.972 19.5415 192.185 17.2505C192.364 16.8911 192.454 16.5991 192.454 16.3745C192.454 15.6108 191.893 15.229 190.77 15.229C189.691 15.229 188.007 15.5884 185.716 16.3071Z" fill="#FCC100"/>
<path d="M211.119 15.6333C210.76 16.936 210.445 18.2163 210.176 19.4741L209.435 23.1802L220.216 20.8892L219.609 30.188C214.488 31.0864 210.468 31.8726 207.548 32.5464C207.368 33.4448 207.211 34.3433 207.076 35.2417L206.604 37.8696L219.138 36.0503L218.262 48.5835C211.793 49.1226 203.595 50.6724 193.667 53.2329L201.686 4.91943L224.124 1.68506L223.248 14.1509C218.846 14.5552 214.803 15.0493 211.119 15.6333Z" fill="#FCC100"/>
<path d="M226.887 5.52588C233.85 3.41455 239.555 2.35889 244.002 2.35889C250.066 2.35889 253.054 4.47021 252.964 8.69287C252.829 17.1831 245.687 25.9653 231.536 35.0396C230.548 40.52 229.829 45.5962 229.38 50.2681L218.666 53.2329C218.801 52.2446 219.34 49.2349 220.283 44.2036L223.248 28.2339C225.898 13.5444 227.111 5.9751 226.887 5.52588ZM235.377 16.3071C235.062 17.5649 234.771 18.8228 234.501 20.0806L233.76 23.7866C237.938 21.7202 240.633 19.5415 241.846 17.2505C242.025 16.8911 242.115 16.5991 242.115 16.3745C242.115 15.6108 241.554 15.229 240.431 15.229C239.353 15.229 237.668 15.5884 235.377 16.3071Z" fill="#FCC100"/>
<path d="M260.78 15.6333C260.421 16.936 260.106 18.2163 259.837 19.4741L259.096 23.1802L269.877 20.8892L269.271 30.188C264.149 31.0864 260.129 31.8726 257.209 32.5464C257.029 33.4448 256.872 34.3433 256.737 35.2417L256.266 37.8696L268.799 36.0503L267.923 48.5835C261.454 49.1226 253.256 50.6724 243.328 53.2329L251.347 4.91943L273.785 1.68506L272.909 14.1509C268.507 14.5552 264.464 15.0493 260.78 15.6333Z" fill="#FCC100"/>
<path d="M277.761 42.1821C279.333 41.9575 280.726 42.1821 281.938 42.856C283.376 43.5747 284.095 44.6978 284.095 46.2251C284.095 48.2915 282.994 50.1782 280.793 51.8853C279.086 53.2329 277.222 54.0415 275.2 54.311C273.583 54.5356 272.19 54.356 271.022 53.772C269.63 53.0532 268.934 51.9302 268.934 50.4028C268.934 48.3364 269.989 46.4272 272.101 44.6753C273.808 43.2827 275.694 42.4517 277.761 42.1821ZM285.375 0.27002L299.458 2.62842C295.729 9.32178 292.989 14.5552 291.237 18.3286C288.856 23.4946 286.745 29.0874 284.903 35.1069L275.537 34.7026L285.375 0.27002Z" fill="#FCC100"/>
</svg>
